# xmcd
#
# Track frame offsets:
#       150
#       13257
#       24640
#       36822
#       51412
#       62645
#       71195
#       82057
#       95437
#       108592
#       123572
#       136927
#       147322
#       160565
#       175295
#       189575
#       202687
#
# Disc length: 2904 seconds
#
# Revision: 1
# Processed by: cddbd v1.5.2PL0 Copyright (c) Steve Scherf et al.
# Submitted via: FreeDbEdit v0.1
#
DISCID=f40b5611
DTITLE=Nat King Cole Trio - It's Only a Paper Moon
DYEAR=1900
DGENRE=Jazz
TTITLE0=Sweet Lorraine
TTITLE1=Honeysuckle Rose
TTITLE2=Early Morning Blues
TTITLE3=That Ain't Right
TTITLE4=On the Sunny Side of the Street
TTITLE5=Back Home in Indiana
TTITLE6=Do N Othing Till You Hear From Me
TTITLE7=After You've Gone
TTITLE8=It's Only a Paper Moon
TTITLE9=Body and Soul
TTITLE10=What Is Thing Thing Called Love
TTITLE11=Sweet Georgia Brown
TTITLE12=It Only Happens Once
TTITLE13=The Frim Fram Sauce
TTITLE14=Homeward Bound
TTITLE15=But She's My Buddy's Chick
TTITLE16=Embraceable You
EXTD=
EXTT0=
EXTT1=
EXTT2=
EXTT3=
EXTT4=
EXTT5=
EXTT6=
EXTT7=
EXTT8=
EXTT9=
EXTT10=
EXTT11=
EXTT12=
EXTT13=
EXTT14=
EXTT15=
EXTT16=
PLAYORDER=
